<?xml version="1.0" encoding="UTF-8"?>
<svg version="1.1" xmlns="http://www.w3.org/2000/svg" width="50" height="50">
<path d="M0 0 C7.92 0 15.84 0 24 0 C24.66 1.32 25.32 2.64 26 4 C27.32 4.33 28.64 4.66 30 5 C30 7.97 30 10.94 30 14 C29.34 14 28.68 14 28 14 C28 15.98 28 17.96 28 20 C28.66 20.33 29.32 20.66 30 21 C29.52450066 23.62571335 29.04477433 26.2505304 28.5625 28.875 C28.42779297 29.62136719 28.29308594 30.36773438 28.15429688 31.13671875 C27.11328125 36.7734375 27.11328125 36.7734375 26 39 C25.34 39 24.68 39 24 39 C23.67 42.63 23.34 46.26 23 50 C15.74 50 8.48 50 1 50 C0.67 46.37 0.34 42.74 0 39 C-0.99 39 -1.98 39 -3 39 C-3.99 32.73 -4.98 26.46 -6 20 C-5.34 20 -4.68 20 -4 20 C-4 18.02 -4 16.04 -4 14 C-4.66 14 -5.32 14 -6 14 C-6 11.03 -6 8.06 -6 5 C-4.68 4.67 -3.36 4.34 -2 4 C-1.34 2.68 -0.68 1.36 0 0 Z " fill="#212120" transform="translate(13,0)"/>
<path d="M0 0 C9.24 0 18.48 0 28 0 C27 11 27 11 26 14 C18.08 14 10.16 14 2 14 C0 5 0 5 0 0 Z " fill="#CECECE" transform="translate(11,23)"/>
<path d="M0 0 C9.24 0 18.48 0 28 0 C27.67 2.31 27.34 4.62 27 7 C18.42 7 9.84 7 1 7 C0.67 4.69 0.34 2.38 0 0 Z " fill="#D0C032" transform="translate(11,13)"/>
<path d="M0 0 C4.62 0 9.24 0 14 0 C13.125 10.75 13.125 10.75 12 13 C8.04 13 4.08 13 0 13 C0 8.71 0 4.42 0 0 Z " fill="#F8F8F8" transform="translate(25,23)"/>
<path d="M0 0 C5.94 0 11.88 0 18 0 C18 7 18 7 17 9 C14.35409986 9.02684679 11.70846904 9.04676357 9.0625 9.0625 C7.93038086 9.07506836 7.93038086 9.07506836 6.77539062 9.08789062 C4.85005687 9.09652441 2.92464419 9.05224333 1 9 C0.67 8.67 0.34 8.34 0 8 C0 5.36 0 2.72 0 0 Z " fill="#DAC932" transform="translate(16,39)"/>
<path d="M0 0 C10.56 0 21.12 0 32 0 C32 0.99 32 1.98 32 3 C21.44 3 10.88 3 0 3 C0 2.01 0 1.02 0 0 Z " fill="#F4F4F4" transform="translate(9,8)"/>
<path d="M0 0 C-0.33 1.65 -0.66 3.3 -1 5 C-1.99 5.33 -2.98 5.66 -4 6 C-4 4.68 -4 3.36 -4 2 C-13.24 2 -22.48 2 -32 2 C-32.33 2.66 -32.66 3.32 -33 4 C-33 1 -33 1 -31 -1 C-26.56974929 -1.58786177 -22.08951631 -1.60761316 -17.625 -1.75 C-16.37976563 -1.80542969 -15.13453125 -1.86085938 -13.8515625 -1.91796875 C-12.0571875 -1.98177734 -12.0571875 -1.98177734 -10.2265625 -2.046875 C-9.12908691 -2.08651367 -8.03161133 -2.12615234 -6.90087891 -2.16699219 C-4.01405901 -2.00080932 -2.43179601 -1.50522202 0 0 Z " fill="#555344" transform="translate(43,21)"/>
<path d="M0 0 C6.6 0 13.2 0 20 0 C20.33 1.32 20.66 2.64 21 4 C13.74 4 6.48 4 -1 4 C-0.67 2.68 -0.34 1.36 0 0 Z " fill="#D9D9D9" transform="translate(15,2)"/>
<path d="M0 0 C2.97 0 5.94 0 9 0 C9.125 6.75 9.125 6.75 8 9 C5.36 9 2.72 9 0 9 C0 6.03 0 3.06 0 0 Z " fill="#FBE73A" transform="translate(25,39)"/>
<path d="M0 0 C4.29 0 8.58 0 13 0 C13 1.98 13 3.96 13 6 C8.71 6 4.42 6 0 6 C0 4.02 0 2.04 0 0 Z " fill="#FEEA3A" transform="translate(25,14)"/>
<path d="M0 0 C0.66 0.33 1.32 0.66 2 1 C1.01 4.96 0.02 8.92 -1 13 C-1.66 13 -2.32 13 -3 13 C-3 14.32 -3 15.64 -3 17 C-3.99 17.33 -4.98 17.66 -6 18 C-6 16.35 -6 14.7 -6 13 C-11.94 13 -17.88 13 -24 13 C-24.33 14.32 -24.66 15.64 -25 17 C-25 15.35 -25 13.7 -25 12 C-17.74 11.67 -10.48 11.34 -3 11 C-2.67 7.7 -2.34 4.4 -2 1 C-1.34 0.67 -0.68 0.34 0 0 Z " fill="#3F3D28" transform="translate(40,26)"/>
<path d="M0 0 C5.28 0 10.56 0 16 0 C16 0.99 16 1.98 16 3 C10.72 3 5.44 3 0 3 C0 2.01 0 1.02 0 0 Z " fill="#D4D4D4" transform="translate(9,8)"/>
</svg>
